Coordinates
version=1
nRows=16
nColumns=38
inDegrees=no

Units are S.I. units (second, meters, Newtons, ...)
If the header above contains a line with 'inDegrees', this indicates whether rotational values are in degrees (yes) or radians (no).

endheader
time	pelvis_tilt	pelvis_list	pelvis_rotation	pelvis_tx	pelvis_ty	pelvis_tz	hip_flexion_r	hip_adduction_r	hip_rotation_r	knee_angle_r	ankle_angle_r	subtalar_angle_r	mtp_angle_r	hip_flexion_l	hip_adduction_l	hip_rotation_l	knee_angle_l	ankle_angle_l	subtalar_angle_l	mtp_angle_l	lumbar_extension	lumbar_bending	lumbar_rotation	arm_flex_r	arm_add_r	arm_rot_r	elbow_flex_r	pro_sup_r	wrist_flex_r	wrist_dev_r	arm_flex_l	arm_add_l	arm_rot_l	elbow_flex_l	pro_sup_l	wrist_flex_l	wrist_dev_l
0.675	-0.119713	0.0146586	-0.0177371	1.13179	0.962427	-0.313842	1.05337	-0.025361	-0.108407	-1.94208	0.0617119	0.0343465	0.000259486	0.0612009	0.118503	0.071646	-0.623128	0.244372	0.0592267	0.000553047	-0.158981	-0.0209753	-0.181724	-0.744354	-0.111124	-0.423282	1.16055	1.24676	0.0229923	-0.00384382	-0.164559	-0.360687	-0.0844268	2.4318	1.71001	0.0442164	-0.00503466
0.683333	-0.130881	-0.0108609	-0.0310944	1.13457	0.968926	-0.314045	1.07311	0.00263543	-0.119548	-1.83127	0.0641559	0.0343465	0.000259486	0.00673638	0.0861178	0.0553317	-0.567594	0.146644	0.0592267	0.000553047	-0.138296	0.0148028	-0.182635	-0.766393	-0.114564	-0.445757	1.18075	1.24221	0.0229923	-0.00384382	-0.155008	-0.342068	-0.0665315	2.48055	1.71849	0.0442164	-0.00503466
0.691667	-0.14314	-0.0352568	-0.0472556	1.13753	0.975549	-0.313992	1.08539	0.0325409	-0.127546	-1.71229	0.063422	0.0343465	0.000259486	-0.0436899	0.0562407	0.0360622	-0.514069	0.0424953	0.0592267	0.000553047	-0.116952	0.0492934	-0.181052	-0.788578	-0.120124	-0.46355	1.20265	1.23528	0.0229923	-0.00384382	-0.15138	-0.3238	-0.0448753	2.52327	1.72615	0.0442164	-0.00503466
0.7	-0.155995	-0.057238	-0.0652607	1.14053	0.98207	-0.313747	1.09049	0.0629338	-0.131336	-1.5863	0.0592501	0.0343465	0.000259486	-0.0892226	0.0309612	0.0170715	-0.465596	-0.0615475	0.0592267	0.000553047	-0.0957555	0.0810822	-0.177784	-0.810681	-0.127262	-0.477018	1.22561	1.22696	0.0229923	-0.00384382	-0.152655	-0.306801	-0.0195573	2.55858	1.73372	0.0442164	-0.00503466
0.708333	-0.168747	-0.0755031	-0.08376	1.14343	0.988304	-0.313435	1.08862	0.0918781	-0.130473	-1.45467	0.0514356	0.0343465	0.000259486	-0.129373	0.0122251	0.00210625	-0.425219	-0.158959	0.0592267	0.000553047	-0.0755476	0.108754	-0.173963	-0.832361	-0.135262	-0.486764	1.24901	1.21857	0.0229923	-0.00384382	-0.15788	-0.291877	0.00877407	2.58584	1.74183	0.0442164	-0.00503466
0.716667	-0.180565	-0.0888901	-0.101204	1.14612	0.994099	-0.313217	1.08003	0.11717	-0.125268	-1.31906	0.03988	0.0343465	0.000259486	-0.163981	0.00159342	-0.00534248	-0.395769	-0.244057	0.0592267	0.000553047	-0.057134	0.131024	-0.17089	-0.853167	-0.143314	-0.493519	1.27224	1.21145	0.0229923	-0.00384382	-0.166284	-0.279667	0.0389864	2.60528	1.7508	0.0442164	-0.00503466
0.725	-0.190581	-0.0965493	-0.116087	1.14856	0.999328	-0.313259	1.06506	0.136694	-0.116797	-1.18158	0.0246661	0.0343465	0.000259486	-0.193128	2.60206e-05	-0.00284856	-0.379655	-0.312771	0.0592267	0.000553047	-0.0412241	0.14689	-0.169808	-0.87257	-0.150591	-0.498013	1.29474	1.20658	0.0229923	-0.00384382	-0.177335	-0.270592	0.0695916	2.61797	1.76059	0.0442164	-0.00503466
0.733333	-0.19804	-0.0980716	-0.127197	1.15074	1.0039	-0.313693	1.04428	0.14881	-0.106749	-1.04473	0.00614692	0.0343465	0.000259486	-0.21701	0.00773244	0.0103045	-0.378712	-0.363158	0.0592267	0.000553047	-0.0283913	0.155773	-0.171652	-0.890021	-0.15634	-0.500876	1.31597	1.20441	0.0229923	-0.00384382	-0.190729	-0.26481	0.0989155	2.62551	1.77085	0.0442164	-0.00503466
0.741667	-0.202411	-0.093544	-0.133815	1.15268	1.00775	-0.31459	1.0185	0.152656	-0.097148	-0.91135	-0.0149947	0.0343465	0.000259486	-0.235778	0.0241044	0.0328186	-0.394144	-0.395542	0.0592267	0.000553047	-0.0190292	0.157623	-0.176866	-0.90501	-0.159959	-0.502579	1.33548	1.20482	0.0229923	-0.00384382	-0.206352	-0.262187	0.125283	2.62954	1.78095	0.0442164	-0.00503466
0.75	-0.203462	-0.0835664	-0.135825	1.15437	1.01089	-0.315941	0.9888	0.148311	-0.09	-0.784437	-0.037777	0.0343465	0.000259486	-0.249416	0.0477355	0.0614907	-0.42651	-0.412253	0.0592267	0.000553047	-0.0133224	0.152968	-0.185293	-0.917126	-0.161068	-0.503413	1.35291	1.20717	0.0229923	-0.00384382	-0.224199	-0.262302	0.147205	2.63136	1.79002	0.0442164	-0.00503466
0.758333	-0.201281	-0.0692144	-0.133723	1.1558	1.01334	-0.317666	0.956414	0.136807	-0.0869412	-0.66688	-0.0610715	0.0343465	0.000259486	-0.257716	0.0765144	0.0917149	-0.475716	-0.417058	0.0592267	0.000553047	-0.0112534	0.14289	-0.196169	-0.926101	-0.159553	-0.5035	1.36803	1.2105	0.0229923	-0.00384382	-0.244289	-0.264489	0.163552	2.63167	1.79693	0.0442164	-0.00503466
0.766667	-0.196242	-0.0519461	-0.128519	1.15695	1.01518	-0.319621	0.922583	0.119972	-0.0889397	-0.561174	-0.0838445	0.0343465	0.000259486	-0.260387	0.107792	0.118264	-0.541001	-0.414423	0.0592267	0.000553047	-0.0126428	0.128933	-0.208214	-0.931828	-0.155569	-0.502834	1.38079	1.21373	0.0229923	-0.00384382	-0.26657	-0.267908	0.173666	2.63035	1.80044	0.0442164	-0.00503466
0.775	-0.188883	-0.0334278	-0.121567	1.15781	1.01646	-0.321628	0.888367	0.100167	-0.0961005	-0.469198	-0.105377	0.0343465	0.000259486	-0.257224	0.138626	0.136194	-0.620958	-0.408683	0.0592267	0.000553047	-0.0172225	0.112931	-0.219817	-0.934349	-0.149528	-0.501296	1.39126	1.21578	0.0229923	-0.00384382	-0.290864	-0.271655	0.177442	2.62653	1.79953	0.0442164	-0.00503466
0.783333	-0.179738	-0.0153667	-0.114341	1.15835	1.01724	-0.323507	0.85452	0.079918	-0.107608	-0.392119	-0.125381	0.0343465	0.000259486	-0.248313	0.166103	0.141743	-0.713603	-0.403335	0.0592267	0.000553047	-0.0247064	0.0967701	-0.229284	-0.93382	-0.142038	-0.498692	1.39964	1.21584	0.0229923	-0.00384382	-0.316831	-0.274874	0.175316	2.61871	1.79382	0.0442164	-0.00503466
0.791667	-0.169238	0.000678035	-0.108204	1.15858	1.01751	-0.3251	0.821462	0.0615633	-0.121819	-0.330486	-0.143927	0.0343465	0.000259486	-0.234168	0.187687	0.132964	-0.816511	-0.40055	0.0592267	0.000553047	-0.0348464	0.0821552	-0.23509	-0.930464	-0.133818	-0.494805	1.40616	1.21344	0.0229923	-0.00384382	-0.343985	-0.276858	0.168186	2.60506	1.78372	0.0442164	-0.00503466
0.8	-0.157648	0.0134722	-0.104224	1.15854	1.01728	-0.326306	0.789365	0.0469787	-0.136471	-0.284428	-0.161228	0.0343465	0.000259486	-0.215741	0.201531	0.10995	-0.927014	-0.400975	0.0592267	0.000553047	-0.0474367	0.0704144	-0.236087	-0.924519	-0.125609	-0.489451	1.41107	1.20862	0.0229923	-0.00384382	-0.371745	-0.277116	0.157264	2.58386	1.77038	0.0442164	-0.00503466
